<svg width="114" height="113" viewBox="0 0 114 113" fill="none" xmlns="http://www.w3.org/2000/svg">
<path d="M101.283 89.7513C95.6327 97.7767 87.9706 104.131 79.0866 108.16C70.2026 112.188 60.4181 113.745 50.7419 112.669L52.4049 97.3339C59.3872 98.11 66.4476 96.9867 72.8582 94.0798C79.2689 91.1729 84.7978 86.5876 88.875 80.7965L101.283 89.7513Z" fill="#D93F66"/>
<rect width="1.08346" height="9.25788" transform="matrix(0.998329 0.0582121 -0.0509002 0.998687 57.5612 2.14624)" fill="#123454"/>
<rect width="1.08346" height="9.25788" transform="matrix(0.998329 0.0582121 -0.0509002 0.998687 59.7244 2.27246)" fill="#123454"/>
<path d="M57.8075 7.9563L59.9708 8.08244L59.2292 17.3124L57.6067 17.2178L57.8075 7.9563Z" fill="#123454"/>
<rect width="1.13458" height="9.12904" transform="matrix(0.363715 -0.931044 0.933726 0.35918 5.25916 39.9043)" fill="#123454"/>
<rect width="1.13458" height="9.12904" transform="matrix(0.363715 -0.931044 0.933726 0.35918 6.08447 37.7917)" fill="#123454"/>
<path d="M10.793 41.4255L11.6183 39.3128L20.0392 42.8559L19.4202 44.4404L10.793 41.4255Z" fill="#123454"/>
<rect width="1.13458" height="9.12904" transform="matrix(-0.363715 0.931044 -0.933726 -0.35918 108.581 75.2661)" fill="#123454"/>
<rect width="1.13458" height="9.12904" transform="matrix(-0.363715 0.931044 -0.933726 -0.35918 107.755 77.3788)" fill="#123454"/>
<path d="M103.047 73.7449L102.222 75.8576L93.8007 72.3145L94.4197 70.73L103.047 73.7449Z" fill="#123454"/>
<rect width="1.1579" height="9.23362" transform="matrix(0.841885 -0.538432 0.543 0.840521 25.2812 12.3926)" fill="#123454"/>
<rect width="1.1579" height="9.23362" transform="matrix(0.841885 -0.538432 0.543 0.840521 27.2308 11.1458)" fill="#123454"/>
<path d="M28.9023 16.9314L30.852 15.6845L35.6221 23.6014L34.1599 24.5366L28.9023 16.9314Z" fill="#123454"/>
<rect width="1.19516" height="9.15304" transform="matrix(-0.24088 -0.970943 0.963582 -0.265882 4.90747 74.2635)" fill="#123454"/>
<rect width="1.19516" height="9.15304" transform="matrix(-0.24088 -0.970943 0.963582 -0.265882 4.33167 71.9427)" fill="#123454"/>
<path d="M10.2759 72.1624L9.7001 69.8415L18.5918 67.698L19.0236 69.4386L10.2759 72.1624Z" fill="#123454"/>
<rect width="1.19516" height="9.15304" transform="matrix(0.24088 0.970943 -0.963582 0.265882 108.932 40.9067)" fill="#123454"/>
<rect width="1.19516" height="9.15304" transform="matrix(0.24088 0.970943 -0.963582 0.265882 109.508 43.2275)" fill="#123454"/>
<path d="M103.564 43.0081L104.14 45.3289L95.2482 47.4724L94.8164 45.7318L103.564 43.0081Z" fill="#123454"/>
<rect width="1.14238" height="9.22466" transform="matrix(-0.762719 -0.647785 0.617493 -0.785727 24.453 102.156)" fill="#123454"/>
<rect width="1.14238" height="9.22466" transform="matrix(-0.762719 -0.647785 0.617493 -0.785727 22.7104 100.676)" fill="#123454"/>
<path d="M27.5774 97.256L25.8348 95.7759L31.7488 88.7129L33.0557 89.8229L27.5774 97.256Z" fill="#123454"/>
<rect width="1.14238" height="9.22465" transform="matrix(0.762718 0.647785 -0.617492 0.785727 89.3872 13.0144)" fill="#123454"/>
<rect width="1.14238" height="9.22465" transform="matrix(0.762718 0.647785 -0.617492 0.785727 91.1298 14.4944)" fill="#123454"/>
<path d="M86.2628 17.9146L88.0054 19.3946L82.0915 26.4576L80.7845 25.3476L86.2628 17.9146Z" fill="#123454"/>
<rect width="1.1779" height="9.28393" transform="matrix(0.967952 -0.249581 0.257568 0.966671 40.5326 4.65161)" fill="#123454"/>
<rect width="1.1779" height="9.28393" transform="matrix(0.967952 -0.249581 0.257568 0.966671 42.8129 4.06372)" fill="#123454"/>
<path d="M42.5972 10.1138L44.8775 9.52581L46.9837 18.5738L45.2735 19.0148L42.5972 10.1138Z" fill="#123454"/>
<rect width="1.10229" height="9.09962" transform="matrix(0.0549019 -0.99847 0.998624 0.0527583 2.44849 56.9312)" fill="#123454"/>
<rect width="1.10229" height="9.09962" transform="matrix(0.0549019 -0.99847 0.998624 0.0527583 2.56946 54.73)" fill="#123454"/>
<path d="M8.1582 56.6809L8.27924 54.4797L17.3512 55.2349L17.2604 56.8858L8.1582 56.6809Z" fill="#123454"/>
<rect width="1.10229" height="9.09962" transform="matrix(-0.054902 0.99847 -0.998624 -0.0527581 111.391 58.2383)" fill="#123454"/>
<rect width="1.10229" height="9.09962" transform="matrix(-0.054902 0.99847 -0.998624 -0.0527581 111.271 60.4395)" fill="#123454"/>
<path d="M105.682 58.4885L105.561 60.6897L96.4888 59.9345L96.5795 58.2836L105.682 58.4885Z" fill="#123454"/>
<rect width="1.14751" height="9.17698" transform="matrix(0.633278 -0.77305 0.776113 0.631664 13.1268 24.5425)" fill="#123454"/>
<rect width="1.14751" height="9.17698" transform="matrix(0.633278 -0.77305 0.776113 0.631664 14.5802 22.7683)" fill="#123454"/>
<path d="M17.9417 27.7219L19.395 25.9478L26.3357 31.9663L25.2457 33.2969L17.9417 27.7219Z" fill="#123454"/>
<rect width="1.1652" height="9.18216" transform="matrix(-0.525295 -0.851686 0.830585 -0.555688 12.5143 89.7854)" fill="#123454"/>
<rect width="1.1652" height="9.18216" transform="matrix(-0.525295 -0.851686 0.830585 -0.555688 11.2902 87.8007)" fill="#123454"/>
<path d="M16.9749 86.1002L15.7507 84.1155L23.5303 79.2611L24.4484 80.7497L16.9749 86.1002Z" fill="#123454"/>
<rect width="1.1652" height="9.18214" transform="matrix(0.525294 0.851686 -0.830585 0.555689 101.326 25.3845)" fill="#123454"/>
<rect width="1.1652" height="9.18214" transform="matrix(0.525294 0.851686 -0.830585 0.555689 102.55 27.3691)" fill="#123454"/>
<path d="M96.865 29.0698L98.0891 31.0546L90.3096 35.9089L89.3915 34.4203L96.865 29.0698Z" fill="#123454"/>
<rect width="1.11933" height="9.25702" transform="matrix(0.927168 0.375838 -0.348056 0.93703 74.2928 5.00708)" fill="#123454"/>
<rect width="1.11933" height="9.25702" transform="matrix(0.927168 0.375838 -0.348056 0.93703 76.3684 5.84839)" fill="#123454"/>
<path d="M72.798 10.6387L74.8736 11.48L71.3922 20.049L69.8355 19.418L72.798 10.6387Z" fill="#123454"/>
<rect width="1.21671" height="9.31424" transform="matrix(0.998921 -0.0438062 0.0479724 0.998971 51.6918 2.33521)" fill="#123454"/>
<rect width="1.21671" height="9.31424" transform="matrix(0.998921 -0.0438062 0.0479724 0.998971 54.1224 2.22852)" fill="#123454"/>
<path d="M52.5787 8.12402L55.0095 8.01742L55.1525 17.3354L53.3294 17.4154L52.5787 8.12402Z" fill="#123454"/>
<rect width="1.12756" height="9.11723" transform="matrix(0.264326 -0.964112 0.966199 0.258962 3.73621 45.4802)" fill="#123454"/>
<rect width="1.12756" height="9.11723" transform="matrix(0.264326 -0.964112 0.966199 0.258962 4.33228 43.3062)" fill="#123454"/>
<path d="M9.39087 46.4124L9.98695 44.2382L18.7215 46.871L18.2744 48.5016L9.39087 46.4124Z" fill="#123454"/>
<rect width="1.12756" height="9.11722" transform="matrix(-0.264326 0.964112 -0.966199 -0.258962 110.104 69.6897)" fill="#123454"/>
<rect width="1.12756" height="9.11722" transform="matrix(-0.264326 0.964112 -0.966199 -0.258962 109.508 71.8638)" fill="#123454"/>
<path d="M104.449 68.7576L103.853 70.9317L95.1185 68.299L95.5655 66.6683L104.449 68.7576Z" fill="#123454"/>
<rect width="1.1541" height="9.21477" transform="matrix(0.780552 -0.623976 0.627708 0.779343 20.8192 16.0032)" fill="#123454"/>
<rect width="1.1541" height="9.21477" transform="matrix(0.780552 -0.623976 0.627708 0.779343 22.6208 14.563)" fill="#123454"/>
<path d="M24.8848 20.1316L26.6864 18.6913L32.2454 26.0528L30.8942 27.133L24.8848 20.1316Z" fill="#123454"/>
<rect width="1.18338" height="9.15962" transform="matrix(-0.339119 -0.941264 0.92938 -0.36771 6.90613 79.699)" fill="#123454"/>
<rect width="1.18338" height="9.15962" transform="matrix(-0.339119 -0.941264 0.92938 -0.36771 6.10352 77.4713)" fill="#123454"/>
<path d="M12.026 77.037L11.2234 74.8092L19.8365 71.7196L20.4384 73.3904L12.026 77.037Z" fill="#123454"/>
<rect width="1.18338" height="9.15961" transform="matrix(0.339119 0.941264 -0.92938 0.36771 106.934 35.4712)" fill="#123454"/>
<rect width="1.18338" height="9.15961" transform="matrix(0.339119 0.941264 -0.92938 0.36771 107.737 37.699)" fill="#123454"/>
<path d="M101.814 38.1331L102.617 40.3608L94.0037 43.4504L93.4018 41.7796L101.814 38.1331Z" fill="#123454"/>
<rect width="1.135" height="9.23763" transform="matrix(-0.826785 -0.56364 0.532634 -0.845627 29.2021 105.358)" fill="#123454"/>
<rect width="1.135" height="9.23763" transform="matrix(-0.826785 -0.56364 0.532634 -0.845627 27.3254 104.079)" fill="#123454"/>
<path d="M31.8081 100.156L29.9313 98.8765L35.0862 91.2249L36.4938 92.1845L31.8081 100.156Z" fill="#123454"/>
<rect width="1.135" height="9.23763" transform="matrix(0.826784 0.563641 -0.532634 0.845627 84.6375 9.81177)" fill="#123454"/>
<rect width="1.135" height="9.23763" transform="matrix(0.826784 0.563641 -0.532634 0.845627 86.5142 11.0911)" fill="#123454"/>
<path d="M82.0315 15.0139L83.9083 16.2934L78.7534 23.945L77.3458 22.9854L82.0315 15.0139Z" fill="#123454"/>
<rect width="1.1689" height="9.26848" transform="matrix(0.936187 -0.350069 0.357076 0.93462 35.1921 6.68506)" fill="#123454"/>
<rect width="1.1689" height="9.26848" transform="matrix(0.936187 -0.350069 0.357076 0.93462 37.3806 5.8667)" fill="#123454"/>
<path d="M37.8077 11.8945L39.9964 11.0761L43.0323 19.8409L41.3909 20.4547L37.8077 11.8945Z" fill="#123454"/>
<rect width="1.2375" height="9.15838" transform="matrix(-0.040758 -0.999281 0.998636 -0.0497281 2.62805 62.9062)" fill="#123454"/>
<rect width="1.2375" height="9.15838" transform="matrix(-0.040758 -0.999281 0.998636 -0.0497281 2.52722 60.4331)" fill="#123454"/>
<path d="M8.31897 62.0034L8.21809 59.5302L17.3766 59.3839L17.4522 61.2388L8.31897 62.0034Z" fill="#123454"/>
<rect width="1.23751" height="9.15838" transform="matrix(0.0407576 0.999281 -0.998636 0.0497286 111.212 52.2639)" fill="#123454"/>
<rect width="1.23751" height="9.15838" transform="matrix(0.0407576 0.999281 -0.998636 0.0497286 111.313 54.7371)" fill="#123454"/>
<path d="M105.521 53.1667L105.622 55.64L96.4634 55.7863L96.3877 53.9313L105.521 53.1667Z" fill="#123454"/>
<rect width="1.14399" height="9.15927" transform="matrix(0.549031 -0.835058 0.838079 0.546682 9.98047 29.3762)" fill="#123454"/>
<rect width="1.14399" height="9.15927" transform="matrix(0.549031 -0.835058 0.838079 0.546682 11.2366 27.4656)" fill="#123454"/>
<path d="M15.0922 32.0281L16.3483 30.1175L23.8675 35.3635L22.9254 36.7965L15.0922 32.0281Z" fill="#123454"/>
<rect width="1.15731" height="9.19607" transform="matrix(-0.611033 -0.792479 0.767387 -0.640091 16.0625 94.3268)" fill="#123454"/>
<rect width="1.15731" height="9.19607" transform="matrix(-0.611033 -0.792479 0.767387 -0.640091 14.6482 92.4926)" fill="#123454"/>
<path d="M20.1195 90.1892L18.7052 88.3549L25.9389 82.6979L26.9997 84.0736L20.1195 90.1892Z" fill="#123454"/>
<rect width="1.15731" height="9.19608" transform="matrix(0.611033 0.792479 -0.767388 0.640091 97.7776 20.8435)" fill="#123454"/>
<rect width="1.15731" height="9.19608" transform="matrix(0.611033 0.792479 -0.767388 0.640091 99.1919 22.6777)" fill="#123454"/>
<path d="M93.7206 24.981L95.1349 26.8152L87.9011 32.4723L86.8404 31.0966L93.7206 24.981Z" fill="#123454"/>
<rect width="1.11021" height="9.26194" transform="matrix(0.962066 0.27399 -0.250475 0.967822 68.8137 3.45703)" fill="#123454"/>
<rect width="1.11021" height="9.26194" transform="matrix(0.962066 0.27399 -0.250475 0.967822 70.9498 4.06543)" fill="#123454"/>
<path d="M67.8978 9.21167L70.034 9.82004L67.4471 18.7079L65.845 18.2516L67.8978 9.21167Z" fill="#123454"/>
<rect width="1.19188" height="9.29846" transform="matrix(0.988904 -0.146805 0.154564 0.988253 46.0526 3.19653)" fill="#123454"/>
<rect width="1.19188" height="9.29846" transform="matrix(0.988904 -0.146805 0.154564 0.988253 48.4098 2.84668)" fill="#123454"/>
<path d="M47.5402 8.85229L49.8975 8.50235L51.04 17.7353L49.272 17.9978L47.5402 8.85229Z" fill="#123454"/>
<rect width="1.11759" height="9.10765" transform="matrix(0.161344 -0.986725 0.987882 0.156248 2.7959 51.1797)" fill="#123454"/>
<rect width="1.11759" height="9.10765" transform="matrix(0.161344 -0.986725 0.987882 0.156248 3.15649 48.9744)" fill="#123454"/>
<path d="M8.5094 51.5178L8.87003 49.3123L17.8222 51.0111L17.5518 52.6652L8.5094 51.5178Z" fill="#123454"/>
<rect width="1.11759" height="9.10766" transform="matrix(-0.161344 0.986725 -0.987882 -0.156248 111.044 63.9905)" fill="#123454"/>
<rect width="1.11759" height="9.10766" transform="matrix(-0.161344 0.986725 -0.987882 -0.156248 110.684 66.1958)" fill="#123454"/>
<path d="M105.331 63.6523L104.97 65.8579L96.0178 64.1591L96.2883 62.505L105.331 63.6523Z" fill="#123454"/>
<rect width="1.15077" height="9.19568" transform="matrix(0.710741 -0.702456 0.705708 0.709491 16.7529 20.0681)" fill="#123454"/>
<rect width="1.15077" height="9.19568" transform="matrix(0.710741 -0.702456 0.705708 0.709491 18.3887 18.4514)" fill="#123454"/>
<path d="M21.2178 23.7417L22.8536 22.125L29.1386 28.8513L27.9117 30.0639L21.2178 23.7417Z" fill="#123454"/>
<rect width="1.17372" height="9.16969" transform="matrix(-0.434301 -0.901415 0.88483 -0.464604 9.45081 84.8916)" fill="#123454"/>
<rect width="1.17372" height="9.16969" transform="matrix(-0.434301 -0.901415 0.88483 -0.464604 8.4314 82.7756)" fill="#123454"/>
<path d="M14.267 81.7L13.2475 79.5839L21.4885 75.5882L22.2531 77.1752L14.267 81.7Z" fill="#123454"/>
<rect width="1.17372" height="9.16969" transform="matrix(0.434302 0.901414 -0.88483 0.464604 104.389 30.2781)" fill="#123454"/>
<rect width="1.17372" height="9.16969" transform="matrix(0.434302 0.901414 -0.88483 0.464604 105.408 32.394)" fill="#123454"/>
<path d="M99.5728 33.4697L100.592 35.5857L92.3512 39.5815L91.5866 37.9945L99.5728 33.4697Z" fill="#123454"/>
<rect width="1.12741" height="9.24867" transform="matrix(-0.881853 -0.472693 0.442476 -0.896197 34.2526 108.037)" fill="#123454"/>
<rect width="1.12741" height="9.24867" transform="matrix(-0.881853 -0.472693 0.442476 -0.896197 32.2642 106.971)" fill="#123454"/>
<path d="M36.3131 102.59L34.3247 101.524L38.6656 93.369L40.1569 94.1683L36.3131 102.59Z" fill="#123454"/>
<rect width="1.12742" height="9.24868" transform="matrix(0.881854 0.472693 -0.442476 0.896197 79.5875 7.13306)" fill="#123454"/>
<rect width="1.12742" height="9.24868" transform="matrix(0.881854 0.472693 -0.442476 0.896197 81.5759 8.19897)" fill="#123454"/>
<path d="M77.527 12.5798L79.5154 13.6457L75.1745 21.8011L73.6832 21.0017L77.527 12.5798Z" fill="#123454"/>
<rect width="1.16261" height="9.25167" transform="matrix(0.893984 -0.446769 0.452492 0.892439 30.0897 9.2749)" fill="#123454"/>
<rect width="1.16261" height="9.25167" transform="matrix(0.893984 -0.446769 0.452492 0.892439 32.1683 8.23608)" fill="#123454"/>
<path d="M33.2258 14.1755L35.3045 13.1367L39.231 21.5231L37.672 22.3022L33.2258 14.1755Z" fill="#123454"/>
<rect width="1.21126" height="9.15154" transform="matrix(-0.140862 -0.99028 0.986862 -0.159854 3.47656 68.6455)" fill="#123454"/>
<rect width="1.21126" height="9.15154" transform="matrix(-0.140862 -0.99028 0.986862 -0.159854 3.13538 66.2466)" fill="#123454"/>
<path d="M9.03577 67.1313L8.69453 64.7324L17.7685 63.5693L18.0244 65.3686L9.03577 67.1313Z" fill="#123454"/>
<rect width="1.21125" height="9.15153" transform="matrix(0.140862 0.99028 -0.986862 0.159854 110.364 46.5249)" fill="#123454"/>
<rect width="1.21125" height="9.15153" transform="matrix(0.140862 0.99028 -0.986862 0.159854 110.705 48.9238)" fill="#123454"/>
<path d="M104.804 48.0391L105.146 50.438L96.0716 51.6011L95.8157 49.8018L104.804 48.0391Z" fill="#123454"/>
<rect width="1.13983" height="9.14314" transform="matrix(0.458886 -0.887887 0.890839 0.455494 7.34839 34.5156)" fill="#123454"/>
<rect width="1.13983" height="9.14314" transform="matrix(0.458886 -0.887887 0.890839 0.455494 8.39441 32.4917)" fill="#123454"/>
<path d="M12.7006 36.6125L13.7467 34.5885L21.761 39.0061L20.9764 40.5242L12.7006 36.6125Z" fill="#123454"/>
<rect width="1.14976" height="9.21052" transform="matrix(-0.690497 -0.724306 0.696059 -0.71701 20.0566 98.4651)" fill="#123454"/>
<rect width="1.14976" height="9.21052" transform="matrix(-0.690497 -0.724306 0.696059 -0.71701 18.4689 96.7996)" fill="#123454"/>
<path d="M23.6666 93.9211L22.0788 92.2556L28.6884 85.8597L29.8792 87.1089L23.6666 93.9211Z" fill="#123454"/>
<rect width="1.14976" height="9.21052" transform="matrix(0.690497 0.724306 -0.69606 0.71701 93.7831 16.7048)" fill="#123454"/>
<rect width="1.14976" height="9.21052" transform="matrix(0.690497 0.724306 -0.69606 0.71701 95.3708 18.3704)" fill="#123454"/>
<path d="M90.1731 21.2488L91.7609 22.9143L85.1514 29.3102L83.9605 28.061L90.1731 21.2488Z" fill="#123454"/>
<rect width="1.09901" height="9.26262" transform="matrix(0.985972 0.167977 -0.150937 0.988385 63.2136 2.49976)" fill="#123454"/>
<rect width="1.09901" height="9.26262" transform="matrix(0.985972 0.167977 -0.150937 0.988385 65.3807 2.8689)" fill="#123454"/>
<path d="M62.8816 8.31396L65.0488 8.68318L63.3798 17.7921L61.7544 17.5152L62.8816 8.31396Z" fill="#123454"/>
<path d="M50.7288 30.0251H66.4019L66.6922 106.307L50.7288 112.664V30.0251Z" fill="#D93F66"/>
</svg>
