<svg width="202" height="43" viewBox="0 0 202 43" fill="none" xmlns="http://www.w3.org/2000/svg">
<path d="M0.5 32.6699V1.97363H6.76798V27.2949H18.758V32.6699H0.5Z" fill="#123454"/>
<path d="M29.5956 9.19629V32.6699H23.4287V9.19629H29.5956ZM26.5222 0C27.4388 0 28.2274 0.223958 28.8879 0.671875C29.5484 1.10579 29.8786 1.92464 29.8786 3.12842C29.8786 4.3182 29.5484 5.14404 28.8879 5.60596C28.2274 6.05387 27.4388 6.27783 26.5222 6.27783C25.5921 6.27783 24.7968 6.05387 24.1364 5.60596C23.4893 5.14404 23.1658 4.3182 23.1658 3.12842C23.1658 1.92464 23.4893 1.10579 24.1364 0.671875C24.7968 0.223958 25.5921 0 26.5222 0Z" fill="#123454"/>
<path d="M48.6623 8.75537C51.21 8.75537 53.2656 9.78418 54.8292 11.8418C56.4063 13.8994 57.1949 16.9159 57.1949 20.8911C57.1949 23.5506 56.8242 25.7902 56.0828 27.6099C55.3415 29.4155 54.317 30.7803 53.0095 31.7041C51.702 32.6279 50.199 33.0898 48.5006 33.0898C47.4088 33.0898 46.4719 32.9499 45.6901 32.6699C44.9083 32.376 44.2411 32.005 43.6884 31.5571C43.1357 31.0952 42.6572 30.6053 42.2528 30.0874H41.9293C42.0372 30.6473 42.118 31.2212 42.172 31.8091C42.2259 32.397 42.2528 32.9709 42.2528 33.5308V43H36.086V9.19629H41.1003L41.9698 12.2407H42.2528C42.6572 11.6108 43.1492 11.0299 43.7288 10.498C44.3085 9.96615 45.0027 9.54622 45.8114 9.23828C46.6337 8.91634 47.584 8.75537 48.6623 8.75537ZM46.6809 13.8784C45.6025 13.8784 44.7465 14.1094 44.113 14.5713C43.4795 15.0332 43.0144 15.7261 42.7179 16.6499C42.4348 17.5737 42.2798 18.7425 42.2528 20.1562V20.8491C42.2528 22.3608 42.3876 23.6416 42.6572 24.6914C42.9403 25.7412 43.4053 26.5391 44.0524 27.085C44.7128 27.6309 45.616 27.9038 46.7617 27.9038C47.7053 27.9038 48.4804 27.6309 49.087 27.085C49.6935 26.5391 50.1451 25.7412 50.4416 24.6914C50.7517 23.6276 50.9067 22.3328 50.9067 20.8071C50.9067 18.5116 50.563 16.7829 49.8755 15.6211C49.1881 14.4593 48.1232 13.8784 46.6809 13.8784Z" fill="#123454"/>
<path d="M82.833 20.8911C82.833 22.8507 82.5768 24.5864 82.0646 26.0981C81.5659 27.6099 80.8312 28.8906 79.8607 29.9404C78.9037 30.9762 77.7444 31.7601 76.383 32.292C75.035 32.8239 73.5119 33.0898 71.8134 33.0898C70.2229 33.0898 68.7603 32.8239 67.4258 32.292C66.1049 31.7601 64.9524 30.9762 63.9684 29.9404C62.9978 28.8906 62.243 27.6099 61.7038 26.0981C61.1781 24.5864 60.9152 22.8507 60.9152 20.8911C60.9152 18.2876 61.3601 16.083 62.2497 14.2773C63.1394 12.4717 64.4064 11.0999 66.0509 10.1621C67.6954 9.22428 69.6567 8.75537 71.9348 8.75537C74.051 8.75537 75.9247 9.22428 77.5557 10.1621C79.2002 11.0999 80.4875 12.4717 81.4176 14.2773C82.3612 16.083 82.833 18.2876 82.833 20.8911ZM67.2034 20.8911C67.2034 22.4308 67.3652 23.7256 67.6887 24.7754C68.0122 25.8252 68.5177 26.616 69.2051 27.1479C69.8926 27.6798 70.789 27.9458 71.8943 27.9458C72.9862 27.9458 73.8691 27.6798 74.543 27.1479C75.2305 26.616 75.7292 25.8252 76.0393 24.7754C76.3628 23.7256 76.5245 22.4308 76.5245 20.8911C76.5245 19.3374 76.3628 18.0496 76.0393 17.0278C75.7292 15.992 75.2305 15.2152 74.543 14.6973C73.8556 14.1794 72.9592 13.9204 71.8539 13.9204C70.2229 13.9204 69.0367 14.5013 68.2953 15.6631C67.5674 16.8249 67.2034 18.5675 67.2034 20.8911Z" fill="#123454"/>
<path d="M102.163 4.68213C100.532 4.68213 99.0622 4.97607 97.7547 5.56396C96.4607 6.13786 95.3554 6.9777 94.4388 8.0835C93.5356 9.17529 92.8414 10.498 92.3562 12.0518C91.8709 13.6055 91.6283 15.3551 91.6283 17.3008C91.6283 19.8763 92.0125 22.1159 92.7808 24.0195C93.5626 25.9092 94.7218 27.3719 96.2585 28.4077C97.8087 29.4435 99.743 29.9614 102.061 29.9614C103.382 29.9614 104.623 29.8494 105.782 29.6255C106.955 29.3875 108.094 29.0936 109.199 28.7437V31.8511C108.12 32.271 106.988 32.5789 105.802 32.7749C104.616 32.9849 103.207 33.0898 101.576 33.0898C98.5702 33.0898 96.0563 32.446 94.0344 31.1582C92.0259 29.8564 90.5162 28.0228 89.5053 25.6572C88.5078 23.2917 88.009 20.4992 88.009 17.2798C88.009 14.9562 88.3191 12.8356 88.9391 10.918C89.5727 8.98633 90.4893 7.32064 91.6889 5.9209C92.9021 4.52116 94.3849 3.44336 96.1372 2.6875C97.903 1.91764 99.9249 1.53271 102.203 1.53271C103.699 1.53271 105.142 1.68669 106.53 1.99463C107.918 2.30257 109.172 2.74349 110.291 3.31738L108.916 6.34082C107.972 5.8929 106.934 5.50798 105.802 5.18604C104.683 4.8501 103.47 4.68213 102.163 4.68213Z" fill="#415E76"/>
<path d="M118.459 0V9.76318C118.459 10.3231 118.446 10.89 118.419 11.4639C118.392 12.0238 118.345 12.5417 118.277 13.0176H118.5C118.958 12.2057 119.538 11.5269 120.239 10.981C120.953 10.4211 121.762 10.0011 122.665 9.72119C123.568 9.42725 124.525 9.28027 125.536 9.28027C127.315 9.28027 128.798 9.57422 129.984 10.1621C131.184 10.75 132.08 11.6598 132.673 12.8916C133.28 14.1234 133.583 15.7191 133.583 17.6787V32.6699H130.267V17.9097C130.267 15.992 129.843 14.5573 128.994 13.6055C128.158 12.6536 126.871 12.1777 125.132 12.1777C123.487 12.1777 122.173 12.5067 121.189 13.1646C120.218 13.8084 119.517 14.7603 119.086 16.02C118.668 17.2798 118.459 18.8195 118.459 20.6392V32.6699H115.103V0H118.459Z" fill="#415E76"/>
<path d="M149.031 9.23828C150.918 9.23828 152.536 9.6722 153.883 10.54C155.231 11.4079 156.263 12.6257 156.977 14.1934C157.691 15.7471 158.049 17.5667 158.049 19.6523V21.8149H142.743C142.783 24.5164 143.43 26.5741 144.684 27.9878C145.937 29.4015 147.703 30.1084 149.981 30.1084C151.383 30.1084 152.623 29.9754 153.702 29.7095C154.78 29.4435 155.899 29.0516 157.058 28.5337V31.5991C155.939 32.117 154.827 32.495 153.722 32.7329C152.63 32.9709 151.336 33.0898 149.84 33.0898C147.71 33.0898 145.85 32.6419 144.259 31.7461C142.682 30.8363 141.455 29.5065 140.579 27.7568C139.703 26.0072 139.265 23.8656 139.265 21.332C139.265 18.8545 139.663 16.7129 140.458 14.9072C141.267 13.0876 142.399 11.6878 143.855 10.708C145.324 9.72819 147.049 9.23828 149.031 9.23828ZM148.99 12.0938C147.198 12.0938 145.769 12.7026 144.704 13.9204C143.639 15.1382 143.006 16.8389 142.803 19.0225H154.531C154.517 17.6507 154.308 16.4469 153.904 15.4111C153.513 14.3613 152.913 13.5495 152.104 12.9756C151.295 12.3877 150.257 12.0938 148.99 12.0938Z" fill="#415E76"/>
<path d="M172.627 33.0898C170.632 33.0898 168.873 32.6629 167.35 31.8091C165.826 30.9552 164.64 29.6535 163.791 27.9038C162.942 26.1541 162.517 23.9495 162.517 21.29C162.517 18.5046 162.962 16.23 163.852 14.4663C164.755 12.6886 165.995 11.3729 167.572 10.519C169.149 9.6652 170.942 9.23828 172.95 9.23828C174.056 9.23828 175.12 9.35726 176.145 9.59521C177.183 9.81917 178.032 10.1061 178.693 10.4561L177.682 13.3745C177.008 13.0946 176.226 12.8426 175.336 12.6187C174.46 12.3947 173.638 12.2827 172.869 12.2827C171.333 12.2827 170.052 12.6257 169.028 13.3115C168.017 13.9974 167.255 15.0052 166.743 16.335C166.244 17.6647 165.995 19.3024 165.995 21.248C165.995 23.1097 166.237 24.6984 166.723 26.0142C167.221 27.3299 167.956 28.3377 168.927 29.0376C169.911 29.7235 171.137 30.0664 172.607 30.0664C173.779 30.0664 174.837 29.9404 175.781 29.6885C176.725 29.4225 177.581 29.1146 178.349 28.7646V31.8721C177.607 32.264 176.778 32.5649 175.862 32.7749C174.959 32.9849 173.88 33.0898 172.627 33.0898Z" fill="#415E76"/>
<path d="M186.942 0V16.9648C186.942 17.5247 186.922 18.2106 186.881 19.0225C186.841 19.8203 186.807 20.5272 186.78 21.1431H186.922C187.205 20.7791 187.616 20.2402 188.155 19.5264C188.708 18.8125 189.173 18.2386 189.55 17.8047L196.91 9.6582H200.853L191.936 19.4844L201.5 32.6699H197.456L189.631 21.7729L186.942 24.3345V32.6699H183.606V0H186.942Z" fill="#415E76"/>
</svg>
